<mxfile host="Electron" agent="Mozilla/5.0 (Windows NT 10.0; Win64; x64) AppleWebKit/537.36 (KHTML, like Gecko) draw.io/26.0.9 Chrome/128.0.6613.186 Electron/32.2.5 Safari/537.36" version="26.0.9">
  <diagram name="PÃ¡gina-1" id="R2LOaZDo5w6xnVBc77oL">
    <mxGraphModel dx="1151" dy="673" grid="1" gridSize="10" guides="1" tooltips="1" connect="1" arrows="1" fold="1" page="1" pageScale="1" pageWidth="827" pageHeight="1169" math="0" shadow="0">
      <root>
        <mxCell id="0" />
        <mxCell id="1" parent="0" />
        <mxCell id="QH7ATuG38WJfA7ITnggq-108" value="" style="rounded=0;whiteSpace=wrap;html=1;" vertex="1" parent="1">
          <mxGeometry x="150" y="40" width="190" height="310" as="geometry" />
        </mxCell>
        <mxCell id="QH7ATuG38WJfA7ITnggq-1" value="Adm" style="shape=umlActor;verticalLabelPosition=bottom;verticalAlign=top;html=1;outlineConnect=0;" vertex="1" parent="1">
          <mxGeometry x="50" y="180" width="30" height="60" as="geometry" />
        </mxCell>
        <mxCell id="QH7ATuG38WJfA7ITnggq-2" value="integrante" style="shape=umlActor;verticalLabelPosition=bottom;verticalAlign=top;html=1;outlineConnect=0;" vertex="1" parent="1">
          <mxGeometry x="440" y="180" width="30" height="60" as="geometry" />
        </mxCell>
        <mxCell id="QH7ATuG38WJfA7ITnggq-100" value="&lt;span style=&quot;text-align: left;&quot;&gt;visualizar_grupo&lt;/span&gt;" style="ellipse;whiteSpace=wrap;html=1;" vertex="1" parent="1">
          <mxGeometry x="184.25" y="295" width="140" height="30" as="geometry" />
        </mxCell>
        <mxCell id="QH7ATuG38WJfA7ITnggq-101" value="&lt;span style=&quot;text-align: left;&quot;&gt;excluir_grupo&lt;/span&gt;" style="ellipse;whiteSpace=wrap;html=1;" vertex="1" parent="1">
          <mxGeometry x="184.25" y="265" width="140" height="30" as="geometry" />
        </mxCell>
        <mxCell id="QH7ATuG38WJfA7ITnggq-102" value="&lt;span style=&quot;text-align: left;&quot;&gt;editar_grupo&lt;/span&gt;" style="ellipse;whiteSpace=wrap;html=1;" vertex="1" parent="1">
          <mxGeometry x="174.25" y="235" width="150" height="30" as="geometry" />
        </mxCell>
        <mxCell id="QH7ATuG38WJfA7ITnggq-103" value="&lt;span style=&quot;text-align: left;&quot;&gt;cadastrar_grupo&lt;/span&gt;" style="ellipse;whiteSpace=wrap;html=1;" vertex="1" parent="1">
          <mxGeometry x="177.25" y="205" width="140" height="30" as="geometry" />
        </mxCell>
        <mxCell id="QH7ATuG38WJfA7ITnggq-104" value="&lt;span style=&quot;text-align: left;&quot;&gt;visualizar_integrante&lt;/span&gt;" style="ellipse;whiteSpace=wrap;html=1;" vertex="1" parent="1">
          <mxGeometry x="177.25" y="175" width="140" height="30" as="geometry" />
        </mxCell>
        <mxCell id="QH7ATuG38WJfA7ITnggq-105" value="&lt;span style=&quot;text-align: left;&quot;&gt;excluir_integrante&lt;/span&gt;" style="ellipse;whiteSpace=wrap;html=1;" vertex="1" parent="1">
          <mxGeometry x="177.25" y="145" width="140" height="30" as="geometry" />
        </mxCell>
        <mxCell id="QH7ATuG38WJfA7ITnggq-106" value="&lt;span style=&quot;text-align: left;&quot;&gt;editar_integrante&lt;/span&gt;" style="ellipse;whiteSpace=wrap;html=1;" vertex="1" parent="1">
          <mxGeometry x="174.25" y="115" width="143" height="30" as="geometry" />
        </mxCell>
        <mxCell id="QH7ATuG38WJfA7ITnggq-107" value="&lt;span style=&quot;text-align: left;&quot;&gt;cadastrar_integrante&lt;/span&gt;" style="ellipse;whiteSpace=wrap;html=1;" vertex="1" parent="1">
          <mxGeometry x="172.75" y="85" width="144.5" height="30" as="geometry" />
        </mxCell>
        <mxCell id="QH7ATuG38WJfA7ITnggq-110" value="Usuario" style="text;html=1;align=center;verticalAlign=middle;whiteSpace=wrap;rounded=0;" vertex="1" parent="1">
          <mxGeometry x="150" y="40" width="60" height="30" as="geometry" />
        </mxCell>
        <mxCell id="QH7ATuG38WJfA7ITnggq-114" value="" style="endArrow=none;html=1;rounded=0;entryX=0.057;entryY=0.674;entryDx=0;entryDy=0;entryPerimeter=0;" edge="1" parent="1" source="QH7ATuG38WJfA7ITnggq-1" target="QH7ATuG38WJfA7ITnggq-106">
          <mxGeometry width="50" height="50" relative="1" as="geometry">
            <mxPoint x="90" y="229.22052296348852" as="sourcePoint" />
            <mxPoint x="190.55299999999988" y="140" as="targetPoint" />
          </mxGeometry>
        </mxCell>
        <mxCell id="QH7ATuG38WJfA7ITnggq-119" value="" style="endArrow=none;html=1;rounded=0;entryX=0.06;entryY=0.749;entryDx=0;entryDy=0;entryPerimeter=0;" edge="1" parent="1" source="QH7ATuG38WJfA7ITnggq-1" target="QH7ATuG38WJfA7ITnggq-107">
          <mxGeometry width="50" height="50" relative="1" as="geometry">
            <mxPoint x="80" y="189.22052296348852" as="sourcePoint" />
            <mxPoint x="180.55299999999988" y="99.99999999999999" as="targetPoint" />
          </mxGeometry>
        </mxCell>
        <mxCell id="QH7ATuG38WJfA7ITnggq-120" value="" style="endArrow=none;html=1;rounded=0;entryX=0;entryY=1;entryDx=0;entryDy=0;" edge="1" parent="1" source="QH7ATuG38WJfA7ITnggq-1" target="QH7ATuG38WJfA7ITnggq-105">
          <mxGeometry width="50" height="50" relative="1" as="geometry">
            <mxPoint x="90" y="254.6105229634885" as="sourcePoint" />
            <mxPoint x="190" y="170" as="targetPoint" />
          </mxGeometry>
        </mxCell>
        <mxCell id="QH7ATuG38WJfA7ITnggq-121" value="" style="endArrow=none;html=1;rounded=0;entryX=0.074;entryY=0.807;entryDx=0;entryDy=0;entryPerimeter=0;" edge="1" parent="1" source="QH7ATuG38WJfA7ITnggq-1" target="QH7ATuG38WJfA7ITnggq-104">
          <mxGeometry width="50" height="50" relative="1" as="geometry">
            <mxPoint x="90" y="294.2205229634885" as="sourcePoint" />
            <mxPoint x="190.55299999999988" y="205" as="targetPoint" />
          </mxGeometry>
        </mxCell>
        <mxCell id="QH7ATuG38WJfA7ITnggq-122" value="" style="endArrow=none;html=1;rounded=0;entryX=0.081;entryY=0.696;entryDx=0;entryDy=0;entryPerimeter=0;" edge="1" parent="1" source="QH7ATuG38WJfA7ITnggq-1" target="QH7ATuG38WJfA7ITnggq-103">
          <mxGeometry width="50" height="50" relative="1" as="geometry">
            <mxPoint x="49.45" y="350.0005229634885" as="sourcePoint" />
            <mxPoint x="150.00299999999987" y="260.78" as="targetPoint" />
          </mxGeometry>
        </mxCell>
      </root>
    </mxGraphModel>
  </diagram>
</mxfile>
